<?xml version="1.0" encoding="UTF-8" standalone="no"?>
<svg xmlns:xlink="http://www.w3.org/1999/xlink" height="33.1px" width="64.2px" xmlns="http://www.w3.org/2000/svg">
  <g transform="matrix(1.0, 0.0, 0.0, 1.0, 0.0, 4.0)">
    <path d="M7.9 16.15 L8.1 14.45 9.65 10.2 10.9 9.7 Q11.25 8.8 11.9 7.8 13.15 5.65 14.35 4.75 L16.6 3.2 17.35 2.75 Q17.35 2.5 17.65 2.1 18.25 1.35 19.8 0.75 L22.5 -0.5 Q24.1 -1.35 26.65 -1.3 29.2 -1.2 31.7 -0.2 L33.5 -0.4 35.95 -0.2 38.25 0.75 Q39.65 1.35 39.65 1.75 L40.65 2.25 42.1 3.25 Q43.6 4.75 45.1 6.7 44.1 9.7 43.1 10.7 42.45 11.3 41.5 11.55 L41.35 12.1 40.65 13.15 Q37.65 15.15 36.15 15.65 L32.2 16.55 28.9 17.1 Q28.45 17.1 26.25 17.85 L23.05 18.6 18.8 18.85 14.25 19.3 11.2 19.55 8.9 19.2 Q8.3 18.8 8.05 17.45 L7.9 16.15 8.05 17.45 Q8.3 18.8 8.9 19.2 L11.2 19.55 14.25 19.3 18.8 18.85 23.05 18.6 26.25 17.85 Q28.45 17.1 28.9 17.1 L32.2 16.55 36.15 15.65 Q37.65 15.15 40.65 13.15 L41.35 12.1 41.5 11.55 Q42.45 11.3 43.1 10.7 44.1 9.7 45.1 6.7 47.05 5.3 49.25 6.7 L49.15 5.95 Q48.4 2.3 50.5 -0.4 52.6 -3.15 53.5 -3.6 54.35 -4.1 54.7 -4.0 L56.05 -3.6 57.6 -3.2 58.75 -3.5 59.0 -3.6 60.75 -3.65 Q61.85 -3.35 61.95 -2.55 L62.0 -1.2 63.15 -0.4 Q64.3 0.7 64.2 2.7 64.05 4.75 63.5 6.25 62.9 7.8 61.95 8.45 61.0 9.1 60.1 8.15 L59.0 8.2 58.2 10.15 Q57.1 12.25 55.55 13.15 L52.2 15.15 52.0 15.2 48.6 17.2 48.4 17.3 48.55 17.35 Q50.95 18.65 51.35 20.0 L51.65 20.4 52.6 21.85 Q53.1 22.7 52.45 23.3 L51.9 23.9 50.45 24.15 50.1 24.65 Q49.7 25.25 49.1 25.3 L48.5 25.6 48.1 25.85 Q47.6 26.15 46.65 25.65 L46.25 25.5 46.15 25.65 44.5 27.15 Q44.05 27.45 43.75 27.7 L43.5 27.8 43.3 27.9 43.05 27.8 42.7 27.65 42.1 27.3 41.3 26.8 40.4 26.8 Q39.65 26.3 39.75 25.9 39.9 25.5 39.4 25.35 L38.5 25.15 Q38.15 25.15 38.25 24.75 L38.55 23.65 Q38.8 22.95 39.45 22.4 L38.65 22.45 37.75 22.55 37.0 22.35 Q36.7 22.3 36.7 22.55 36.75 22.75 36.2 22.8 L35.2 22.05 35.25 22.75 Q35.1 23.4 34.2 23.05 L33.3 23.15 32.7 23.55 31.65 23.75 30.35 23.85 29.0 23.9 Q28.4 23.95 28.35 24.15 28.25 24.4 27.5 24.45 L26.35 24.4 26.55 24.45 Q27.6 24.9 28.2 25.5 28.7 26.05 28.6 26.4 29.05 27.15 27.1 27.5 L26.95 27.8 Q26.5 28.6 25.15 28.5 22.55 29.6 22.0 28.7 L21.35 28.1 21.0 27.75 19.85 27.3 18.65 26.65 17.35 25.4 17.0 24.9 17.0 24.95 16.35 26.55 16.3 26.65 Q16.15 27.45 15.7 27.6 L15.65 27.65 15.65 27.8 15.5 28.2 15.05 28.75 Q14.7 29.1 14.1 28.75 14.1 28.2 13.6 27.95 L13.5 27.9 Q12.7 28.75 12.0 28.65 L11.65 28.6 Q11.25 28.55 11.25 28.0 L10.9 27.9 10.25 27.85 10.25 27.8 9.75 27.3 9.7 27.2 Q9.5 25.5 11.35 23.85 L9.65 23.7 9.45 22.85 6.55 23.15 4.45 23.05 2.0 23.0 1.65 22.95 1.45 22.85 Q0.1 22.2 0.0 20.6 L3.95 21.1 Q4.95 21.1 5.95 20.1 L5.55 18.55 Q5.3 16.95 5.95 16.6 L7.3 16.2 7.9 16.15 M48.4 17.3 L45.75 18.7 43.6 19.0 42.2 18.75 39.5 17.8 39.3 17.6 Q39.3 17.15 41.5 16.3 44.35 15.2 47.1 12.4 49.55 9.9 49.25 6.7 49.55 9.9 47.1 12.4 44.35 15.2 41.5 16.3 39.3 17.15 39.3 17.6 L39.5 17.8 42.2 18.75 43.6 19.0 45.75 18.7 48.4 17.3 M46.25 25.5 Q44.85 24.85 44.1 24.2 L43.05 23.1 42.15 21.85 41.1 22.2 40.15 22.4 39.5 22.4 39.45 22.4 39.5 22.4 40.15 22.4 41.1 22.2 42.15 21.85 43.05 23.1 44.1 24.2 Q44.85 24.85 46.25 25.5 M39.3 17.6 Q28.5 20.9 17.85 22.05 9.75 23.6 5.95 20.1 9.75 23.6 17.85 22.05 28.5 20.9 39.3 17.6 M17.0 24.9 L17.05 24.85 16.2 24.9 15.1 25.15 13.9 25.15 Q12.7 25.35 12.5 24.6 L11.6 23.65 11.35 23.85 11.6 23.65 12.5 24.6 Q12.7 25.35 13.9 25.15 L15.1 25.15 16.2 24.9 17.05 24.85 17.0 24.9" fill="#e64f4f" fill-rule="evenodd" stroke="none"/>
    <path d="M45.1 6.7 Q43.6 4.75 42.1 3.25 L40.65 2.25 39.65 1.75 Q39.65 1.35 38.25 0.75 L35.95 -0.2 33.5 -0.4 31.7 -0.2 Q29.2 -1.2 26.65 -1.3 24.1 -1.35 22.5 -0.5 L19.8 0.75 Q18.25 1.35 17.65 2.1 17.35 2.5 17.35 2.75 L16.6 3.2 14.35 4.75 Q13.15 5.65 11.9 7.8 11.25 8.8 10.9 9.7 L9.65 10.2 8.1 14.45 7.9 16.15 8.05 17.45 Q8.3 18.8 8.9 19.2 L11.2 19.55 14.25 19.3 18.8 18.85 23.05 18.6 26.25 17.85 Q28.45 17.1 28.9 17.1 L32.2 16.55 36.15 15.65 Q37.65 15.15 40.65 13.15 L41.35 12.1 41.5 11.55 Q42.45 11.3 43.1 10.7 44.1 9.7 45.1 6.7 47.05 5.3 49.25 6.7 L49.15 5.95 Q48.4 2.3 50.5 -0.4 52.6 -3.15 53.5 -3.6 54.35 -4.1 54.7 -4.0 L56.05 -3.6 57.6 -3.2 58.75 -3.5 59.0 -3.6 60.75 -3.65 Q61.85 -3.35 61.95 -2.55 L62.0 -1.2 63.15 -0.4 Q64.3 0.7 64.2 2.7 64.05 4.75 63.5 6.25 62.9 7.8 61.95 8.45 61.0 9.1 60.1 8.15 L59.0 8.2 58.2 10.15 Q57.1 12.25 55.55 13.15 L52.2 15.15 52.0 15.2 48.6 17.2 48.45 17.3 48.55 17.35 Q50.95 18.65 51.35 20.0 L51.65 20.4 52.6 21.85 Q53.1 22.7 52.45 23.3 L51.9 23.9 50.45 24.15 50.1 24.65 Q49.7 25.25 49.1 25.3 L48.5 25.6 48.1 25.85 Q47.6 26.15 46.65 25.65 L46.25 25.5 46.15 25.65 44.5 27.15 Q44.05 27.45 43.75 27.7 L43.3 27.9 43.05 27.8 42.7 27.65 42.1 27.3 41.3 26.8 40.4 26.8 Q39.65 26.3 39.75 25.9 39.9 25.5 39.4 25.35 L38.5 25.15 Q38.15 25.15 38.25 24.75 L38.55 23.65 Q38.8 22.95 39.45 22.4 L38.65 22.45 37.75 22.55 37.0 22.35 Q36.7 22.3 36.7 22.55 36.75 22.75 36.2 22.8 L35.2 22.05 35.25 22.75 Q35.1 23.4 34.2 23.05 L33.3 23.15 32.7 23.55 31.65 23.75 30.35 23.85 29.0 23.9 Q28.4 23.95 28.35 24.15 28.25 24.4 27.5 24.45 L26.35 24.4 26.55 24.45 Q27.6 24.9 28.2 25.5 28.7 26.05 28.6 26.4 29.05 27.15 27.1 27.5 L26.95 27.8 Q26.5 28.6 25.15 28.5 22.55 29.6 22.0 28.7 L21.35 28.1 21.0 27.75 19.85 27.3 18.65 26.65 17.35 25.4 17.0 24.9 17.0 24.95 16.35 26.55 16.3 26.65 Q16.15 27.45 15.7 27.6 L15.65 27.65 15.65 27.8 15.5 28.2 15.05 28.75 Q14.7 29.1 14.1 28.75 14.1 28.2 13.6 27.95 L13.5 27.9 Q12.7 28.75 12.0 28.65 L11.65 28.6 Q11.25 28.55 11.25 28.0 L10.9 27.9 10.25 27.85 10.25 27.8 9.75 27.3 9.7 27.2 Q9.5 25.5 11.35 23.85 L9.65 23.7 9.45 22.85 6.55 23.15 4.45 23.05 2.0 23.0 1.65 22.95 1.45 22.85 Q0.1 22.2 0.0 20.6 L3.95 21.1 Q4.95 21.1 5.95 20.1 L5.55 18.55 Q5.3 16.95 5.95 16.6 L7.3 16.2 7.9 16.15 M48.4 17.3 L48.45 17.3 M39.45 22.4 L39.5 22.4 40.15 22.4 41.1 22.2 42.15 21.85 43.05 23.1 44.1 24.2 Q44.85 24.85 46.25 25.5 M49.25 6.7 Q49.55 9.9 47.1 12.4 44.35 15.2 41.5 16.3 39.3 17.15 39.3 17.6 L39.5 17.8 42.2 18.75 43.6 19.0 45.75 18.7 48.4 17.3 M43.3 27.9 L43.5 27.8 43.75 27.7 M11.35 23.85 L11.6 23.65 12.5 24.6 Q12.7 25.35 13.9 25.15 L15.1 25.15 16.2 24.9 17.05 24.85 17.0 24.9 M5.95 20.1 Q9.75 23.6 17.85 22.05 28.5 20.9 39.3 17.6" fill="none" stroke="#a41717" stroke-linecap="round" stroke-linejoin="round" stroke-width="0.05"/>
  </g>
</svg>
