<?xml version="1.0" encoding="UTF-8" standalone="no"?>
<svg xmlns:xlink="http://www.w3.org/1999/xlink" height="31.6px" width="29.4px" xmlns="http://www.w3.org/2000/svg">
  <g transform="matrix(1.0, 0.0, 0.0, 1.0, -2.5, -3.3)">
    <path d="M25.25 10.0 L25.15 10.0 25.3 10.1 25.4 10.9 25.75 10.9 26.2 10.95 Q27.95 11.2 29.65 12.8 L30.15 13.25 Q31.9 14.95 31.9 16.1 31.95 17.35 31.1 18.0 L30.85 18.2 30.65 18.5 29.9 18.85 29.6 18.95 29.15 19.1 29.0 19.1 28.2 19.1 27.95 19.5 27.85 19.5 27.95 20.75 Q28.05 21.55 27.75 22.45 L27.1 23.9 25.65 25.35 Q24.8 26.15 24.15 26.3 L23.9 26.9 Q23.9 27.75 24.55 28.65 L25.05 29.6 25.4 30.65 27.65 32.4 28.5 32.95 28.8 33.1 28.8 33.35 28.75 33.35 28.8 33.45 27.75 33.45 25.15 33.0 24.4 31.85 23.6 31.05 22.55 29.15 22.35 30.7 Q22.75 31.9 23.1 32.5 23.4 33.1 24.6 33.6 L25.65 33.95 25.65 34.9 23.6 34.9 Q21.5 34.2 21.55 33.95 L19.95 30.6 Q19.65 29.7 19.0 29.1 L18.45 28.65 17.9 29.15 17.6 30.2 Q17.05 31.25 16.4 31.55 L14.35 32.5 Q15.35 33.15 16.6 33.25 17.85 33.35 18.15 33.95 L18.45 34.9 10.7 34.9 Q7.8 35.0 6.6 33.95 L7.6 32.5 6.05 32.5 4.3 32.0 Q3.05 31.55 2.7 30.15 2.35 28.7 2.7 27.8 3.4 27.65 4.0 28.6 L4.4 27.7 4.45 27.7 4.45 27.65 4.7 25.95 4.7 25.65 Q4.7 24.55 5.05 23.4 L5.3 22.65 5.5 22.05 Q6.05 20.7 7.0 19.75 L7.65 19.15 7.7 19.1 Q9.1 18.0 10.15 17.6 L10.2 17.55 10.35 17.5 12.75 17.0 16.6 16.75 17.7 16.7 18.6 15.95 Q19.35 15.4 19.95 15.4 L20.65 15.3 21.0 15.3 Q21.7 15.25 21.85 15.0 L22.4 12.7 22.05 12.6 19.3 11.7 Q18.2 11.2 16.25 7.85 15.6 6.1 15.95 5.9 L17.05 5.75 18.35 6.0 19.2 6.65 20.25 7.05 20.7 7.2 21.7 7.9 Q20.15 5.7 19.65 4.3 19.3 3.45 19.8 3.35 L20.7 3.5 Q22.3 4.1 23.75 6.35 24.85 8.15 25.25 10.0" fill="#0394d1" fill-rule="evenodd" stroke="none"/>
    <path d="M25.25 10.0 Q24.85 8.15 23.75 6.35 22.3 4.1 20.7 3.5 L19.8 3.35 Q19.3 3.45 19.65 4.3 20.15 5.7 21.7 7.9 L20.7 7.2 20.25 7.05 19.2 6.65 18.35 6.0 17.05 5.75 15.95 5.9 Q15.6 6.1 16.25 7.85 18.2 11.2 19.3 11.7 L22.05 12.6 22.4 12.7 21.85 15.0 Q21.7 15.25 21.0 15.3 L20.65 15.3 19.95 15.4 Q19.35 15.4 18.6 15.95 L17.7 16.7 16.6 16.75 12.75 17.0 10.35 17.5 10.2 17.55 10.15 17.6 Q9.1 18.0 7.7 19.1 L7.65 19.15 7.0 19.75 Q6.05 20.7 5.5 22.05 L5.3 22.65 5.05 23.4 Q4.7 24.55 4.7 25.65 L4.7 25.95 4.45 27.65 4.45 27.7 4.4 27.7 4.0 28.6 Q3.4 27.65 2.7 27.8 2.35 28.7 2.7 30.15 3.05 31.55 4.3 32.0 L6.05 32.5 7.6 32.5 6.6 33.95 Q7.8 35.0 10.7 34.9 L18.45 34.9 18.15 33.95 Q17.85 33.35 16.6 33.25 15.35 33.15 14.35 32.5 L16.4 31.55 Q17.05 31.25 17.6 30.2 L17.9 29.15 18.45 28.65 19.0 29.1 Q19.65 29.7 19.95 30.6 L21.55 33.95 Q21.5 34.2 23.6 34.9 L25.65 34.9 25.65 33.95 24.6 33.6 Q23.4 33.1 23.1 32.5 22.75 31.9 22.35 30.7 L22.55 29.15 23.6 31.05 24.4 31.85 25.15 33.0 27.75 33.45 28.8 33.45 28.75 33.35 28.8 33.35 28.8 33.1 28.5 32.95 27.65 32.4 25.4 30.65 25.05 29.6 24.55 28.65 Q23.9 27.75 23.9 26.9 L24.15 26.3 Q24.8 26.15 25.65 25.35 L27.1 23.9 27.75 22.45 Q28.05 21.55 27.95 20.75 L27.85 19.5 27.95 19.5 28.2 19.1 29.0 19.1 29.15 19.1 29.6 18.95 29.9 18.85 30.65 18.5 30.85 18.2 31.1 18.0 Q31.95 17.35 31.9 16.1 31.9 14.95 30.15 13.25 L29.65 12.8 Q27.95 11.2 26.2 10.95 L25.75 10.9 25.4 10.9 25.3 10.1 25.15 10.0 25.25 10.0 Z" fill="none" stroke="#02648e" stroke-linecap="round" stroke-linejoin="round" stroke-width="0.05"/>
  </g>
</svg>
